<svg xmlns="http://www.w3.org/2000/svg" width="28" height="12" viewBox="0 0 28 12">
  <g id="Polygon_4" data-name="Polygon 4" transform="translate(26 2) rotate(90)" fill="none" stroke-linecap="round" stroke-linejoin="round">
    <path d="M4,0,8,24H0Z" stroke="none"/>
    <path d="M 3.999999761581421 0 L -4.76837158203125e-07 24 L 8 24 L 3.999999761581421 0 M 3.999999761581421 -2 C 4.97767972946167 -2 5.812059879302979 -1.293170928955078 5.972789764404297 -0.3288002014160156 L 9.972789764404297 23.67119979858398 C 10.06943988800049 24.2511100769043 9.906049728393555 24.84416961669922 9.526040077209473 25.29274940490723 C 9.146029472351074 25.74132919311523 8.587900161743164 26 8 26 L -4.76837158203125e-07 26 C -0.5879006385803223 26 -1.146029949188232 25.74132919311523 -1.526040554046631 25.29274940490723 C -1.906050205230713 24.84416961669922 -2.069440364837646 24.2511100769043 -1.972790241241455 23.67119979858398 L 2.027209758758545 -0.3288002014160156 C 2.187939643859863 -1.293170928955078 3.022319793701172 -2 3.999999761581421 -2 Z" stroke="none" fill="#0080ff"/>
  </g>
</svg>
